<?xml version="1.0" standalone="no"?>
<!DOCTYPE svg PUBLIC "-//W3C//DTD SVG 20010904//EN"
 "http://www.w3.org/TR/2001/REC-SVG-20010904/DTD/svg10.dtd">
<svg version="1.0" xmlns="http://www.w3.org/2000/svg"
 width="707.000000pt" height="353.000000pt" viewBox="0 0 707.000000 353.000000"
 preserveAspectRatio="xMidYMid meet">

<g transform="translate(0.000000,353.000000) scale(0.100000,-0.100000)"
fill="#000000" stroke="none">
<path d="M4319 3067 c-2 -3 -353 -7 -779 -11 -426 -4 -791 -9 -810 -10 -19 -2
-125 -7 -235 -10 -110 -4 -254 -11 -320 -16 -66 -5 -160 -12 -210 -15 -297
-20 -407 -119 -422 -378 -5 -79 -9 -100 -22 -104 -122 -36 -300 -185 -374
-313 -46 -80 -77 -209 -77 -322 0 -136 22 -234 77 -347 83 -168 245 -306 413
-352 25 -7 49 -16 54 -20 9 -8 17 -52 37 -214 12 -101 36 -250 46 -280 23 -75
165 -175 302 -213 86 -23 164 -29 626 -49 146 -6 877 13 1255 32 151 8 394 17
540 20 146 3 332 12 414 20 82 8 183 15 225 15 82 0 275 21 354 39 83 19 226
82 247 108 33 42 38 89 35 293 l-3 195 76 45 c156 90 250 192 323 345 96 203
95 389 -2 575 -90 173 -276 368 -429 452 l-45 25 -7 89 c-6 71 -15 103 -44
164 -41 88 -69 119 -146 166 -84 51 -200 63 -694 69 -220 3 -402 4 -405 2z
m-2186 -164 c-13 -2 -33 -2 -45 0 -13 2 -3 4 22 4 25 0 35 -2 23 -4z m360 -70
c-7 -2 -19 -2 -25 0 -7 3 -2 5 12 5 14 0 19 -2 13 -5z m2647 -58 c25 -10 50
-22 56 -26 14 -11 32 -95 39 -189 4 -41 15 -124 25 -185 10 -60 26 -159 34
-220 9 -60 21 -139 26 -175 13 -84 35 -562 35 -750 -1 -165 -8 -193 -77 -291
-38 -54 -45 -59 -79 -59 -21 0 -71 -4 -111 -9 -40 -5 -122 -12 -183 -16 -60
-3 -162 -10 -225 -16 -63 -5 -306 -12 -540 -15 -513 -6 -1059 -22 -1117 -33
-80 -15 -674 3 -797 24 -95 17 -159 47 -197 95 -30 36 -34 59 -69 330 -6 47
-15 108 -20 135 -5 28 -9 115 -10 195 0 80 -5 175 -10 211 -13 90 -21 712 -10
789 12 81 33 103 133 135 l80 26 456 -6 c251 -3 506 -7 566 -9 61 -2 169 0
240 5 72 4 177 11 235 14 58 3 177 12 265 20 145 13 400 32 515 38 25 1 191 2
370 1 289 -1 330 -3 370 -19z m267 -587 c-3 -8 -6 -5 -6 6 -1 11 2 17 5 13 3
-3 4 -12 1 -19z m-3547 -982 c0 -9 -30 -14 -35 -6 -4 6 3 10 14 10 12 0 21 -2
21 -4z m3724 -401 c-3 -37 -22 -80 -31 -71 -7 6 19 106 27 106 4 0 5 -16 4
-35z m-3597 -40 c9 -24 0 -25 -27 -5 l-25 20 23 0 c12 0 25 -7 29 -15z m2786
-37 c-2 -5 -25 -8 -51 -8 -31 0 -42 3 -33 9 16 11 91 9 84 -1z m-116 -4 c-3
-3 -12 -4 -19 -1 -8 3 -5 6 6 6 11 1 17 -2 13 -5z m604 -116 c-29 -6 -51 -6
-65 0 -16 8 -7 11 44 10 l65 0 -44 -10z m156 6 c-3 -3 -12 -4 -19 -1 -8 3 -5
6 6 6 11 1 17 -2 13 -5z m-1688 -60 c2 -2 -22 -4 -55 -3 -43 1 -52 3 -34 9 22
6 79 3 89 -6z m-284 -4 c4 -6 -5 -10 -20 -10 -15 0 -24 4 -20 10 3 6 12 10 20
10 8 0 17 -4 20 -10z m92 -6 c-3 -3 -12 -4 -19 -1 -8 3 -5 6 6 6 11 1 17 -2
13 -5z m-597 -14 c0 -5 -2 -10 -4 -10 -3 0 -8 5 -11 10 -3 6 -1 10 4 10 6 0
11 -4 11 -10z m197 4 c-3 -3 -12 -4 -19 -1 -8 3 -5 6 6 6 11 1 17 -2 13 -5z"/>
<path d="M4387 2215 c-56 -21 -120 -78 -147 -132 -66 -132 28 -420 160 -489
171 -91 373 97 358 333 -8 120 -78 237 -170 284 -45 23 -144 25 -201 4z"/>
<path d="M2672 2179 c-123 -48 -200 -181 -190 -327 9 -121 113 -288 193 -308
27 -7 75 -2 153 14 43 10 92 47 115 88 58 103 60 111 65 186 5 89 -10 144 -62
222 -82 122 -173 164 -274 125z"/>
<path d="M3854 1736 c-12 -9 -24 -29 -27 -46 -4 -17 -26 -49 -51 -74 -67 -65
-148 -80 -268 -52 -68 17 -102 39 -158 106 -46 55 -74 63 -92 25 -15 -34 13
-108 60 -157 102 -107 350 -140 477 -64 52 32 133 132 146 181 20 71 -33 119
-87 81z"/>
</g>
</svg>
